<?xml version="1.0" encoding="UTF-8"?>
<!DOCTYPE svg PUBLIC "-//W3C//DTD SVG 1.1//EN" "http://www.w3.org/Graphics/SVG/1.1/DTD/svg11.dtd">
<svg version="1.1" xmlns="http://www.w3.org/2000/svg" xmlns:xlink="http://www.w3.org/1999/xlink" x="0" y="0" width="100" height="100" viewBox="0, 0, 100, 100">
  <g id="Logo" transform="translate(0, 0)">
    <g>
      <path d="M-0,-0 L14.286,-0 L14.286,100 L-0,100 L-0,-0 z" fill="#FF5555"/>
      <path d="M85.714,-0 L100,-0 L100,100 L85.714,100 L85.714,-0 z" fill="#FF79C6"/>
      <path d="M14.286,-0 L28.571,-0 L28.571,100 L14.286,100 L14.286,-0 z" fill="#FFB86C"/>
      <path d="M28.571,-0 L42.857,-0 L42.857,100 L28.571,100 L28.571,-0 z" fill="#F1FA8C"/>
      <path d="M42.857,-0 L57.143,-0 L57.143,100 L42.857,100 L42.857,-0 z" fill="#50FA7B"/>
      <path d="M57.143,-0 L71.429,-0 L71.429,100 L57.143,100 L57.143,-0 z" fill="#8BE9FD"/>
      <path d="M71.429,-0 L85.714,-0 L85.714,100 L71.429,100 L71.429,-0 z" fill="#BD93F9"/>
    </g>
    <g>
      <path d="M28.182,5.957 L29.417,8.664 L30.651,11.372 L47.807,48.996 L61.598,18.98 L65.131,26.046 L67.284,21.36 L68.176,19.419 L69.067,17.478 L70.978,21.299 L94.136,67.615 L94.568,68.479 L95,69.343 L94.163,69.825 L93.325,70.307 L83.14,76.169 L82.192,76.714 L81.243,77.26 L80.761,76.278 L80.279,75.296 L77.437,69.508 L74.57,71.158 L67.282,56.318 L53.061,89.706 L52.138,91.874 L51.214,94.043 L50.259,91.888 L49.303,89.733 L45.527,81.212 L43.629,85.668 L31.527,58.362 L26.949,80.383 L26.78,81.199 L26.61,82.015 L9.95,82.015 L10.253,80.752 L10.555,79.489 L11.216,76.731 L5,76.731 L21.239,8.987 L25.314,17.923 L26.795,11.744 L27.488,8.85 L28.182,5.957 z M61.309,44.156 L47.174,77.344 L51.158,86.332 L65.493,52.675 L61.309,44.156 z M24.506,42.523 L17.396,76.731 L14.377,76.731 L13.847,78.942 L24.11,78.942 L29.39,53.541 L24.506,42.523 z M69.185,24.584 L66.893,29.571 L84.756,65.296 L80.106,67.972 L82.555,72.959 L90.955,68.125 L69.185,24.584 z M29.09,15.354 L27.385,22.465 L43.629,58.09 L46.111,52.686 L29.09,15.354 z" fill="#282A36"/>
      <path d="M92.201,68.429 L69.043,22.113 L51.074,61.222 L28.685,12.12 L12.445,79.864 L24.841,79.864 L31.952,45.655 L51.074,88.8 L68.755,47.289 L82.015,74.291 z" fill="#FFFFFF"/>
    </g>
  </g>
</svg>
