<?xml version="1.0" encoding="UTF-8"?>
<!DOCTYPE svg PUBLIC "-//W3C//DTD SVG 1.1//EN" "http://www.w3.org/Graphics/SVG/1.1/DTD/svg11.dtd">
<svg version="1.1" xmlns="http://www.w3.org/2000/svg" xmlns:xlink="http://www.w3.org/1999/xlink" x="0" y="0" width="147.402" height="147.402" viewBox="0, 0, 147.402, 147.402">
  <g id="Rainbow">
    <path d="M-3.063,-3.071 L22.854,-3.071 L22.854,150 L-3.063,150 L-3.063,-3.071 z" fill="#FF5555"/>
    <path d="M124.091,-3.071 L150,-3.071 L150,150 L124.091,150 L124.091,-3.071 z" fill="#FF79C6"/>
    <path d="M22.854,-3.071 L43.101,-3.071 L43.101,150 L22.854,150 L22.854,-3.071 z" fill="#FFB86C"/>
    <path d="M43.101,-3.071 L63.349,-3.071 L63.349,150 L43.101,150 L43.101,-3.071 z" fill="#F1FA8C"/>
    <path d="M63.349,-3.071 L83.596,-3.071 L83.596,150 L63.349,150 L63.349,-3.071 z" fill="#50FA7B"/>
    <path d="M83.596,-3.071 L103.844,-3.071 L103.844,150 L83.596,150 L83.596,-3.071 z" fill="#8BE9FD"/>
    <path d="M103.844,-3.071 L124.091,-3.071 L124.091,150 L103.844,150 L103.844,-3.071 z" fill="#BD93F9"/>
  </g>
  <g id="Logo">
    <g>
      <path d="M42.778,11.277 L44.528,15.115 L46.277,18.952 L70.592,72.278 L90.138,29.736 L95.146,39.751 L98.198,33.108 L99.462,30.357 L100.726,27.606 L103.434,33.022 L136.256,98.667 L136.868,99.892 L137.48,101.117 L136.294,101.8 L135.107,102.483 L120.671,110.79 L119.327,111.564 L117.983,112.337 L117.299,110.945 L116.616,109.553 L112.587,101.351 L108.525,103.689 L98.195,82.656 L78.04,129.976 L76.731,133.05 L75.421,136.124 L74.067,133.07 L72.713,130.015 L67.361,117.938 L64.67,124.254 L47.518,85.553 L41.031,116.764 L40.79,117.92 L40.55,119.077 L16.937,119.077 L17.366,117.286 L17.795,115.496 L18.732,111.588 L9.921,111.588 L32.938,15.572 L38.712,28.237 L40.811,19.48 L41.795,15.379 L42.778,11.277 z M89.73,65.418 L69.695,112.456 L75.342,125.196 L95.66,77.493 L89.73,65.418 z M37.568,63.103 L27.49,111.588 L23.211,111.588 L22.46,114.721 L37.006,114.721 L44.49,78.72 L37.568,63.103 z M100.892,37.678 L97.644,44.747 L122.961,95.381 L116.371,99.173 L119.842,106.242 L131.748,99.39 L100.892,37.678 z M44.064,24.597 L41.648,34.675 L64.67,85.166 L68.19,77.507 L44.064,24.597 z" fill="#282A36"/>
      <path d="M133.514,99.82 L100.691,34.176 L75.223,89.606 L43.49,20.012 L20.474,116.028 L38.042,116.028 L48.121,67.543 L75.223,128.693 L100.283,69.858 L119.077,108.128 z" fill="#FFFFFF"/>
    </g>
  </g>
</svg>
