<?xml version="1.0" encoding="UTF-8"?>
<!DOCTYPE svg PUBLIC "-//W3C//DTD SVG 1.1//EN" "http://www.w3.org/Graphics/SVG/1.1/DTD/svg11.dtd">
<svg version="1.1" xmlns="http://www.w3.org/2000/svg" xmlns:xlink="http://www.w3.org/1999/xlink" x="0" y="0" width="147.402" height="147.402" viewBox="0, 0, 147.402, 147.402">
  <g id="Rainbow">
    <g>
      <path d="M0,0 L24.958,0 L24.958,147.409 L0,147.409 L0,0 z" fill="#FF5555"/>
      <path d="M122.451,0 L147.402,0 L147.402,147.409 L122.451,147.409 L122.451,0 z" fill="#FF79C6"/>
      <path d="M24.958,0 L44.457,0 L44.457,147.409 L24.958,147.409 L24.958,0 z" fill="#FFB86C"/>
      <path d="M44.457,0 L63.955,0 L63.955,147.409 L44.457,147.409 L44.457,0 z" fill="#F1FA8C"/>
      <path d="M63.955,0 L83.454,0 L83.454,147.409 L63.955,147.409 L63.955,0 z" fill="#50FA7B"/>
      <path d="M83.454,0 L102.953,0 L102.953,147.409 L83.454,147.409 L83.454,0 z" fill="#8BE9FD"/>
      <path d="M102.953,0 L122.451,0 L122.451,147.409 L102.953,147.409 L102.953,0 z" fill="#BD93F9"/>
    </g>
    <g>
      <path d="M46.214,18.213 L47.769,21.624 L49.324,25.035 L70.938,72.436 L88.312,34.621 L92.763,43.523 L95.476,37.619 L96.599,35.173 L97.723,32.728 L100.13,37.542 L129.306,95.893 L129.85,96.982 L130.394,98.07 L129.339,98.677 L128.284,99.285 L115.452,106.669 L114.257,107.357 L113.063,108.044 L112.455,106.807 L111.847,105.57 L108.267,98.278 L104.655,100.357 L95.474,81.661 L77.558,123.724 L76.394,126.456 L75.23,129.188 L74.027,126.473 L72.823,123.758 L68.065,113.022 L65.674,118.637 L50.427,84.236 L44.661,111.979 L44.447,113.007 L44.233,114.035 L23.244,114.035 L23.625,112.443 L24.007,110.852 L24.84,107.378 L17.008,107.378 L37.467,22.031 L42.6,33.288 L44.466,25.505 L45.34,21.859 L46.214,18.213 z M87.949,66.339 L70.14,108.15 L75.159,119.474 L93.22,77.071 L87.949,66.339 z M41.583,64.281 L32.624,107.378 L28.821,107.378 L28.153,110.163 L41.084,110.163 L47.735,78.162 L41.583,64.281 z M97.87,41.681 L94.983,47.964 L117.487,92.972 L111.63,96.343 L114.715,102.626 L125.298,96.536 L97.87,41.681 z M47.357,30.053 L45.21,39.012 L65.674,83.892 L68.802,77.084 L47.357,30.053 z" fill="#282A36"/>
      <path d="M126.868,96.918 L97.692,38.567 L75.054,87.839 L46.847,25.977 L26.388,111.325 L42.004,111.325 L50.963,68.227 L75.054,122.583 L97.329,70.285 L114.035,104.303 z" fill="#FFFFFF"/>
    </g>
  </g>
</svg>
