<?xml version="1.0" encoding="UTF-8"?>
<!DOCTYPE svg PUBLIC "-//W3C//DTD SVG 1.1//EN" "http://www.w3.org/Graphics/SVG/1.1/DTD/svg11.dtd">
<svg version="1.1" xmlns="http://www.w3.org/2000/svg" xmlns:xlink="http://www.w3.org/1999/xlink" x="0" y="0" width="595.276" height="841.89" viewBox="0, 0, 595.276, 841.89">
  <g id="Layer_1">
    <path d="M1,841.89 L596.276,841.89 L596.276,0 L1,0 z" fill="#282A36" id="Background_Dark"/>
    <g id="Rainbow">
      <path d="M-0,0 L85.039,0 L85.039,756.85 L-0,756.85 L-0,0 z" fill="#FF5555"/>
      <path d="M510.236,0 L595.276,0 L595.276,756.85 L510.236,756.85 L510.236,0 z" fill="#FF79C6"/>
      <path d="M85.039,0 L170.079,0 L170.079,756.85 L85.039,756.85 L85.039,0 z" fill="#FFB86C"/>
      <path d="M170.079,0 L255.118,0 L255.118,756.85 L170.079,756.85 L170.079,0 z" fill="#F1FA8C"/>
      <path d="M255.118,0 L340.158,0 L340.158,756.85 L255.118,756.85 L255.118,0 z" fill="#50FA7B"/>
      <path d="M340.158,0 L425.197,0 L425.197,756.85 L340.158,756.85 L340.158,0 z" fill="#8BE9FD"/>
      <path d="M425.197,0 L510.236,0 L510.236,756.85 L425.197,756.85 L425.197,0 z" fill="#BD93F9"/>
    </g>
    <path d="M42.638,152.953 L552.638,152.953 L552.638,723.507 L42.638,723.507 L42.638,152.953 z" fill="#FFFFFF" id="Background_Light"/>
    <g id="Mikrogravitation">
      <path d="M71.905,819.406 L71.905,781.646 L57.691,781.646 L50.139,804.356 L42.56,781.646 L28.346,781.646 L28.346,819.406 L38.595,819.406 L38.595,795.779 L44.664,815.899 L55.587,815.899 L61.656,795.779 L61.656,819.406 z" fill="#FFFFFF"/>
      <path d="M77.299,819.406 L87.547,819.406 L87.547,781.646 L77.299,781.646 z" fill="#FFFFFF"/>
      <path d="M106.104,804.949 L116.757,819.406 L129.352,819.406 L114.465,800.067 L128.139,781.646 L115.678,781.646 L106.158,795.833 L103.191,795.833 L103.191,781.646 L92.942,781.646 L92.942,819.406 L103.191,819.406 L103.191,804.949 z" fill="#FFFFFF"/>
      <path d="M148.151,781.646 L131.322,781.646 L131.322,819.406 L141.571,819.406 L141.571,806.001 L142.137,806.001 L151.226,819.406 L163.309,819.406 L153.033,805.542 C159.425,804.248 162.797,800.041 162.797,794.215 C162.797,786.582 157.753,781.646 148.151,781.646 z M141.571,790.843 L148.044,790.843 C150.552,790.843 152.44,791.922 152.44,794.215 C152.44,796.507 150.552,797.559 148.044,797.559 L141.571,797.559 z" fill="#FFFFFF"/>
      <path d="M185.695,780.945 C174.016,780.945 165.736,789.225 165.736,800.526 C165.736,811.826 174.016,820.107 185.695,820.107 C197.374,820.107 205.654,811.826 205.654,800.526 C205.654,789.225 197.374,780.945 185.695,780.945 z M185.695,790.762 C191.197,790.762 195,794.781 195,800.526 C195,806.271 191.197,810.289 185.695,810.289 C180.193,810.289 176.39,806.271 176.39,800.526 C176.39,794.781 180.193,790.762 185.695,790.762 z" fill="#FFFFFF"/>
      <path d="M228.579,780.945 C216.711,780.945 208.351,789.036 208.351,800.526 C208.351,811.989 216.711,820.08 228.579,820.08 C237.452,820.08 246.811,813.769 246.811,801.173 C246.811,800.094 246.784,798.962 246.595,797.775 L227.823,797.775 L227.823,805.273 L236.67,805.273 C235.591,808.968 232.894,810.829 228.12,810.829 C223.293,810.829 218.842,807.403 218.842,800.526 C218.842,794.593 222.645,790.519 227.958,790.519 C231.195,790.519 233.434,791.598 235.16,793.297 L242.387,786.177 C239.151,782.914 234.62,780.945 228.579,780.945 z" fill="#FFFFFF"/>
      <path d="M267.687,781.646 L250.856,781.646 L250.856,819.406 L261.105,819.406 L261.105,806.001 L261.672,806.001 L270.762,819.406 L282.844,819.406 L272.568,805.542 C278.961,804.248 282.332,800.041 282.332,794.215 C282.332,786.582 277.288,781.646 267.687,781.646 z M261.105,790.843 L267.579,790.843 C270.087,790.843 271.975,791.922 271.975,794.215 C271.975,796.507 270.087,797.559 267.579,797.559 L261.105,797.559 z" fill="#FFFFFF"/>
      <path d="M324.191,819.406 L309.896,781.646 L297.813,781.646 L283.519,819.406 L294.226,819.406 L296.707,812.204 L310.813,812.204 L313.321,819.406 z M299.89,803.061 L303.773,791.896 L307.631,803.061 z" fill="#FFFFFF"/>
      <path d="M344.905,819.406 L358.659,781.646 L347.952,781.646 L338.944,808.698 L329.935,781.646 L319.066,781.646 L332.821,819.406 z" fill="#FFFFFF"/>
      <path d="M361.491,819.406 L371.74,819.406 L371.74,781.646 L361.491,781.646 z" fill="#FFFFFF"/>
      <path d="M406.695,791.086 L406.695,781.646 L374.977,781.646 L374.977,791.086 L385.712,791.086 L385.712,819.406 L395.961,819.406 L395.961,791.086 z" fill="#FFFFFF"/>
      <path d="M442.647,819.406 L428.353,781.646 L416.269,781.646 L401.974,819.406 L412.682,819.406 L415.164,812.204 L429.269,812.204 L431.778,819.406 z M418.347,803.061 L422.23,791.896 L426.087,803.061 z" fill="#FFFFFF"/>
      <path d="M469.645,791.086 L469.645,781.646 L437.927,781.646 L437.927,791.086 L448.661,791.086 L448.661,819.406 L458.91,819.406 L458.91,791.086 z" fill="#FFFFFF"/>
      <path d="M472.882,819.406 L483.131,819.406 L483.131,781.646 L472.882,781.646 z" fill="#FFFFFF"/>
      <path d="M507.135,780.945 C495.456,780.945 487.176,789.225 487.176,800.526 C487.176,811.826 495.456,820.107 507.135,820.107 C518.813,820.107 527.093,811.826 527.093,800.526 C527.093,789.225 518.813,780.945 507.135,780.945 z M507.135,790.762 C512.637,790.762 516.44,794.781 516.44,800.526 C516.44,806.271 512.637,810.289 507.135,810.289 C501.632,810.289 497.83,806.271 497.83,800.526 C497.83,794.781 501.632,790.762 507.135,790.762 z" fill="#FFFFFF"/>
      <path d="M566.929,819.406 L566.929,781.646 L556.68,781.646 L556.68,802.873 L541.118,781.646 L531.139,781.646 L531.139,819.406 L541.388,819.406 L541.388,798.18 L556.95,819.406 z" fill="#FFFFFF"/>
    </g>
    <g id="Emblem">
      <path d="M77.863,10.471 L79.739,14.584 L81.615,18.698 L107.683,75.869 L128.638,30.26 L134.007,40.996 L137.278,33.875 L138.633,30.926 L139.989,27.977 L142.892,33.783 L178.081,104.161 L178.737,105.474 L179.393,106.787 L178.121,107.519 L176.849,108.251 L161.371,117.158 L159.931,117.987 L158.49,118.816 L157.757,117.324 L157.024,115.832 L152.706,107.037 L148.35,109.544 L137.276,86.995 L115.667,137.727 L114.264,141.023 L112.86,144.318 L111.408,141.044 L109.957,137.769 L104.218,124.82 L101.334,131.592 L82.945,90.101 L75.99,123.562 L75.732,124.802 L75.475,126.042 L50.159,126.042 L50.619,124.122 L51.079,122.202 L52.083,118.013 L42.638,118.013 L67.313,15.075 L73.504,28.652 L75.755,19.264 L76.809,14.867 L77.863,10.471 z M128.2,68.515 L106.721,118.944 L112.775,132.602 L134.558,81.46 L128.2,68.515 z M72.278,66.033 L61.473,118.013 L56.886,118.013 L56.08,121.371 L71.676,121.371 L79.698,82.775 L72.278,66.033 z M140.167,38.775 L136.685,46.353 L163.827,100.637 L156.762,104.703 L160.483,112.281 L173.247,104.936 L140.167,38.775 z M79.242,24.75 L76.652,35.555 L101.334,89.686 L105.107,81.475 L79.242,24.75 z" fill="#282A36"/>
      <path d="M175.141,105.397 L139.952,35.02 L112.648,94.446 L78.627,19.834 L53.951,122.773 L72.786,122.773 L83.591,70.793 L112.648,136.352 L139.514,73.275 L159.663,114.304 z" fill="#FFFFFF"/>
    </g>
  </g>
</svg>
