<?xml version="1.0" encoding="UTF-8"?>
<!DOCTYPE svg PUBLIC "-//W3C//DTD SVG 1.1//EN" "http://www.w3.org/Graphics/SVG/1.1/DTD/svg11.dtd">
<svg version="1.1" xmlns="http://www.w3.org/2000/svg" xmlns:xlink="http://www.w3.org/1999/xlink" x="0" y="0" width="300.102" height="286.879" viewBox="0, 0, 376.54, 359.948">
  <g id="Ebene_1" transform="translate(-24, -27)">
    <g>
      <path d="M355.04,269.723 L258.919,77.48 L184.335,239.81 L91.404,36 L24,317.185 L75.451,317.185 L104.965,175.197 L184.335,354.278 L257.722,181.977 L312.763,294.053 z" fill="#282A36"/>
      <g>
        <g>
          <path d="M385.944,282.725 L289.823,90.482 L215.239,252.811 L122.308,49.003 L54.903,330.188 L106.354,330.188 L135.868,188.199 L215.239,367.28 L288.626,194.98 L343.666,307.055 z" fill="#FFFFFF"/>
          <path d="M386.444,283.225 L290.323,90.982 L215.739,253.311 L122.808,49.503 L55.403,330.688 L106.854,330.688 L136.368,188.699 L215.739,367.78 L289.126,195.48 L344.166,307.555 z" fill-opacity="0" stroke="#282A36" stroke-width="5"/>
        </g>
        <g>
          <path d="M121.052,36 L126.176,47.238 L215.253,242.596 L285.958,88.707 L289.66,80.65 L293.626,88.581 L389.747,280.823 L391.54,284.41 L388.064,286.41 L345.787,310.74 L341.851,313.005 L339.85,308.929 L288.901,205.185 L219.151,368.946 L215.316,377.949 L211.351,369.003 L137.339,202.012 L110.517,331.053 L109.813,334.44 L49.512,334.44 L50.768,329.196 L118.172,48.011 L121.052,36 z M122.308,49.002 L54.903,330.188 L106.354,330.188 L135.868,188.198 L215.238,367.28 L288.626,194.98 L343.666,307.055 L385.944,282.725 L289.823,90.482 L215.238,252.811 L122.308,49.002 z" fill="#FFFFFF"/>
          <path d="M121.552,36.5 L126.676,47.738 L215.753,243.096 L286.458,89.207 L290.16,81.15 L294.126,89.081 L390.247,281.323 L392.04,284.91 L388.564,286.91 L346.287,311.24 L342.351,313.505 L340.35,309.429 L289.401,205.685 L219.651,369.446 L215.816,378.449 L211.851,369.503 L137.839,202.512 L111.017,331.553 L110.313,334.94 L50.012,334.94 L51.268,329.696 L118.672,48.511 L121.552,36.5 z M122.808,49.502 L55.403,330.688 L106.854,330.688 L136.368,188.698 L215.738,367.78 L289.126,195.48 L344.166,307.555 L386.444,283.225 L290.323,90.982 L215.738,253.311 L122.808,49.502 z" fill-opacity="0" stroke="#282A36" stroke-width="5"/>
        </g>
      </g>
    </g>
  </g>
</svg>
