<?xml version="1.0" encoding="UTF-8"?>
<!DOCTYPE svg PUBLIC "-//W3C//DTD SVG 1.1//EN" "http://www.w3.org/Graphics/SVG/1.1/DTD/svg11.dtd">
<svg version="1.1" xmlns="http://www.w3.org/2000/svg" xmlns:xlink="http://www.w3.org/1999/xlink" x="0" y="0" width="670" height="100" viewBox="0, 0, 670, 100">
  <g id="Background">
    <path d="M0,0 L670,0 L670,100 L0,100 L0,0 z" fill="#282A36"/>
  </g>
  <g id="Logo">
    <g>
      <path d="M177.509,67.558 L177.509,32.442 L164.29,32.442 L157.267,53.562 L150.219,32.442 L137,32.442 L137,67.558 L146.532,67.558 L146.532,45.585 L152.175,64.297 L162.334,64.297 L167.977,45.585 L167.977,67.558 z" fill="#FFFFFF"/>
      <path d="M192.057,67.558 L192.057,32.442 L182.525,32.442 L182.525,67.558 z" fill="#FFFFFF"/>
      <path d="M209.314,54.113 L219.221,67.558 L230.936,67.558 L217.091,49.573 L229.807,32.442 L218.219,32.442 L209.364,45.636 L206.606,45.636 L206.606,32.442 L197.073,32.442 L197.073,67.558 L206.606,67.558 L206.606,54.113 z" fill="#FFFFFF"/>
      <path d="M248.419,32.442 L232.767,32.442 L232.767,67.558 L242.298,67.558 L242.298,55.092 L242.825,55.092 L251.278,67.558 L262.515,67.558 L252.959,54.666 C258.903,53.461 262.038,49.549 262.038,44.131 C262.038,37.032 257.348,32.442 248.419,32.442 z M242.298,40.995 L248.318,40.995 C250.651,40.995 252.407,41.998 252.407,44.131 C252.407,46.263 250.651,47.241 248.318,47.241 L242.298,47.241 z" fill="#FFFFFF"/>
      <path d="M283.334,31.79 C272.473,31.79 264.773,39.49 264.773,50 C264.773,60.51 272.473,68.21 283.334,68.21 C294.195,68.21 301.895,60.51 301.895,50 C301.895,39.49 294.195,31.79 283.334,31.79 z M283.334,40.92 C288.451,40.92 291.987,44.657 291.987,50 C291.987,55.343 288.451,59.079 283.334,59.079 C278.217,59.079 274.68,55.343 274.68,50 C274.68,44.657 278.217,40.92 283.334,40.92 z" fill="#FFFFFF"/>
      <path d="M323.217,31.79 C312.179,31.79 304.404,39.314 304.404,50 C304.404,60.66 312.179,68.185 323.217,68.185 C331.469,68.185 340.172,62.316 340.172,50.602 C340.172,49.599 340.147,48.546 339.971,47.442 L322.514,47.442 L322.514,54.415 L330.741,54.415 C329.738,57.851 327.23,59.582 322.79,59.582 C318.3,59.582 314.161,56.395 314.161,50 C314.161,44.482 317.697,40.694 322.639,40.694 C325.649,40.694 327.731,41.697 329.336,43.278 L336.058,36.657 C333.049,33.621 328.835,31.79 323.217,31.79 z" fill="#FFFFFF"/>
      <path d="M359.586,32.442 L343.934,32.442 L343.934,67.558 L353.466,67.558 L353.466,55.092 L353.993,55.092 L362.446,67.558 L373.683,67.558 L364.126,54.666 C370.071,53.461 373.207,49.549 373.207,44.131 C373.207,37.032 368.516,32.442 359.586,32.442 z M353.466,40.995 L359.487,40.995 C361.819,40.995 363.574,41.998 363.574,44.131 C363.574,46.263 361.819,47.241 359.487,47.241 L353.466,47.241 z" fill="#FFFFFF"/>
      <path d="M412.135,67.558 L398.84,32.442 L387.604,32.442 L374.31,67.558 L384.267,67.558 L386.576,60.86 L399.694,60.86 L402.027,67.558 z M389.535,52.358 L393.147,41.974 L396.734,52.358 z" fill="#FFFFFF"/>
      <path d="M431.399,67.558 L444.191,32.442 L434.233,32.442 L425.855,57.6 L417.478,32.442 L407.369,32.442 L420.162,67.558 z" fill="#FFFFFF"/>
      <path d="M456.356,67.558 L456.356,32.442 L446.825,32.442 L446.825,67.558 z" fill="#FFFFFF"/>
      <path d="M488.864,41.221 L488.864,32.442 L459.366,32.442 L459.366,41.221 L469.349,41.221 L469.349,67.558 L478.881,67.558 L478.881,41.221 z" fill="#FFFFFF"/>
      <path d="M522.3,67.558 L509.005,32.442 L497.768,32.442 L484.474,67.558 L494.432,67.558 L496.741,60.86 L509.858,60.86 L512.192,67.558 z M499.7,52.358 L503.312,41.974 L506.899,52.358 z" fill="#FFFFFF"/>
      <path d="M547.408,41.221 L547.408,32.442 L517.91,32.442 L517.91,41.221 L527.893,41.221 L527.893,67.558 L537.424,67.558 L537.424,41.221 z" fill="#FFFFFF"/>
      <path d="M559.949,67.558 L559.949,32.442 L550.417,32.442 L550.417,67.558 z" fill="#FFFFFF"/>
      <path d="M582.273,31.79 C571.411,31.79 563.711,39.49 563.711,50 C563.711,60.51 571.411,68.21 582.273,68.21 C593.133,68.21 600.835,60.51 600.835,50 C600.835,39.49 593.133,31.79 582.273,31.79 z M582.273,40.92 C587.39,40.92 590.926,44.657 590.926,50 C590.926,55.343 587.39,59.079 582.273,59.079 C577.156,59.079 573.619,55.343 573.619,50 C573.619,44.657 577.156,40.92 582.273,40.92 z" fill="#FFFFFF"/>
      <path d="M637.882,67.558 L637.882,32.442 L628.35,32.442 L628.35,52.183 L613.877,32.442 L604.597,32.442 L604.597,67.558 L614.128,67.558 L614.128,47.818 L628.601,67.558 z" fill="#FFFFFF"/>
    </g>
    <g>
      <path d="M-0,-0 L14.286,-0 L14.286,100 L-0,100 L-0,-0 z" fill="#FF5555"/>
      <path d="M85.714,-0 L100,-0 L100,100 L85.714,100 L85.714,-0 z" fill="#FF79C6"/>
      <path d="M14.286,-0 L28.571,-0 L28.571,100 L14.286,100 L14.286,-0 z" fill="#FFB86C"/>
      <path d="M28.571,-0 L42.857,-0 L42.857,100 L28.571,100 L28.571,-0 z" fill="#F1FA8C"/>
      <path d="M42.857,-0 L57.143,-0 L57.143,100 L42.857,100 L42.857,-0 z" fill="#50FA7B"/>
      <path d="M57.143,-0 L71.429,-0 L71.429,100 L57.143,100 L57.143,-0 z" fill="#8BE9FD"/>
      <path d="M71.429,-0 L85.714,-0 L85.714,100 L71.429,100 L71.429,-0 z" fill="#BD93F9"/>
    </g>
    <g>
      <path d="M28.182,5.957 L29.417,8.664 L30.651,11.372 L47.807,48.996 L61.598,18.98 L65.131,26.046 L67.284,21.36 L68.176,19.419 L69.067,17.478 L70.978,21.299 L94.136,67.615 L94.568,68.479 L95,69.343 L94.163,69.825 L93.325,70.307 L83.14,76.169 L82.192,76.714 L81.243,77.26 L80.761,76.278 L80.279,75.296 L77.437,69.508 L74.57,71.158 L67.282,56.318 L53.061,89.706 L52.138,91.874 L51.214,94.043 L50.259,91.888 L49.303,89.733 L45.527,81.212 L43.629,85.668 L31.527,58.362 L26.949,80.383 L26.78,81.199 L26.61,82.015 L9.95,82.015 L10.253,80.752 L10.555,79.489 L11.216,76.731 L5,76.731 L21.239,8.987 L25.314,17.923 L26.795,11.744 L27.488,8.85 L28.182,5.957 z M61.309,44.156 L47.174,77.344 L51.158,86.332 L65.493,52.675 L61.309,44.156 z M24.506,42.523 L17.396,76.731 L14.377,76.731 L13.847,78.942 L24.11,78.942 L29.39,53.541 L24.506,42.523 z M69.185,24.584 L66.893,29.571 L84.756,65.296 L80.106,67.972 L82.555,72.959 L90.955,68.125 L69.185,24.584 z M29.09,15.354 L27.385,22.465 L43.629,58.09 L46.111,52.686 L29.09,15.354 z" fill="#282A36"/>
      <path d="M92.201,68.429 L69.043,22.113 L51.074,61.222 L28.685,12.12 L12.445,79.864 L24.841,79.864 L31.952,45.655 L51.074,88.8 L68.755,47.289 L82.015,74.291 z" fill="#FFFFFF"/>
    </g>
  </g>
</svg>
