<?xml version="1.0" encoding="UTF-8"?>
<!DOCTYPE svg PUBLIC "-//W3C//DTD SVG 1.1//EN" "http://www.w3.org/Graphics/SVG/1.1/DTD/svg11.dtd">
<svg version="1.1" xmlns="http://www.w3.org/2000/svg" xmlns:xlink="http://www.w3.org/1999/xlink" x="0" y="0" width="595.276" height="841.89" viewBox="0, 0, 595.276, 841.89">
  <g id="Background">
    <path d="M0,0 L595.276,0 L595.276,841.89 L0,841.89 z" fill="#282A36"/>
  </g>
  <g id="Rainbow">
    <g>
      <path d="M-0,0 L85.039,0 L85.039,756.85 L-0,756.85 L-0,0 z" fill="#FF5555"/>
      <path d="M510.236,0 L595.276,0 L595.276,756.85 L510.236,756.85 L510.236,0 z" fill="#FF79C6"/>
      <path d="M85.039,0 L170.079,0 L170.079,756.85 L85.039,756.85 L85.039,0 z" fill="#FFB86C"/>
      <path d="M170.079,0 L255.118,0 L255.118,756.85 L170.079,756.85 L170.079,0 z" fill="#F1FA8C"/>
      <path d="M255.118,0 L340.158,0 L340.158,756.85 L255.118,756.85 L255.118,0 z" fill="#50FA7B"/>
      <path d="M340.158,0 L425.197,0 L425.197,756.85 L340.158,756.85 L340.158,0 z" fill="#8BE9FD"/>
      <path d="M425.197,0 L510.236,0 L510.236,756.85 L425.197,756.85 L425.197,0 z" fill="#BD93F9"/>
    </g>
  </g>
  <g id="Text">
    <g id="2018">
      <path d="M295.937,649.628 L307.238,663.415 C311.402,659.089 316.106,655.142 322.486,655.142 C327.245,655.142 331.085,658.224 331.085,663.091 C331.085,666.606 329.354,669.959 325.947,673.202 L300.209,697.482 L300.209,713.109 L353.309,713.109 L353.309,694.67 L328.38,694.67 L339.196,684.396 C348.604,675.582 351.794,669.309 351.794,660.55 C351.794,645.572 341.142,636 324.975,636 C310.05,636 301.182,643.517 295.937,649.628 z" fill="#282A36"/>
      <path d="M390.565,636 C372.937,636 359.581,648.599 359.581,675.258 C359.581,701.916 372.937,714.515 390.565,714.515 C407.868,714.515 421.008,701.916 421.008,675.258 C421.008,648.599 407.868,636 390.565,636 z M390.565,655.142 C396.026,655.142 400.461,660.982 400.461,675.258 C400.461,689.533 396.026,695.373 390.565,695.373 C384.725,695.373 380.129,689.533 380.129,675.258 C380.129,660.982 384.725,655.142 390.565,655.142 z" fill="#282A36"/>
      <path d="M448.045,694.183 L432.634,694.183 L432.634,713.109 L483.085,713.109 L483.085,694.183 L467.999,694.183 L467.999,636.217 L432.039,648.761 L432.039,668.12 L448.045,662.55 z" fill="#282A36"/>
      <path d="M520.07,636 C504.119,636 491.088,644.22 491.088,657.954 C491.088,666.444 495.9,671.851 502.334,674.879 C494.981,677.745 489.141,683.261 489.141,692.453 C489.141,706.351 503.038,714.515 520.07,714.515 C537.157,714.515 551.055,706.351 551.055,692.453 C551.055,683.206 545.215,677.907 537.807,674.879 C544.241,671.851 549.108,666.444 549.108,657.954 C549.108,644.22 536.076,636 520.07,636 z M520.07,682.287 C524.991,682.287 529.155,685.045 529.155,689.965 C529.155,694.832 524.991,697.428 520.07,697.428 C515.259,697.428 511.041,694.832 511.041,689.965 C511.041,685.045 515.259,682.287 520.07,682.287 z M520.07,653.52 C524.343,653.52 527.696,655.791 527.696,660.117 C527.696,664.443 524.343,666.876 520.07,666.876 C515.8,666.876 512.446,664.443 512.446,660.117 C512.446,655.791 515.8,653.52 520.07,653.52 z" fill="#282A36"/>
    </g>
    <g id="Mikrogravitation">
      <path d="M71.905,819.406 L71.905,781.646 L57.691,781.646 L50.139,804.356 L42.56,781.646 L28.346,781.646 L28.346,819.406 L38.595,819.406 L38.595,795.779 L44.664,815.899 L55.587,815.899 L61.656,795.779 L61.656,819.406 z" fill="#FFFFFF"/>
      <path d="M87.547,819.406 L87.547,781.646 L77.299,781.646 L77.299,819.406 z" fill="#FFFFFF"/>
      <path d="M106.104,804.949 L116.757,819.406 L129.352,819.406 L114.465,800.067 L128.139,781.646 L115.678,781.646 L106.158,795.833 L103.191,795.833 L103.191,781.646 L92.942,781.646 L92.942,819.406 L103.191,819.406 L103.191,804.949 z" fill="#FFFFFF"/>
      <path d="M148.151,781.646 L131.322,781.646 L131.322,819.406 L141.571,819.406 L141.571,806.001 L142.137,806.001 L151.226,819.406 L163.309,819.406 L153.033,805.542 C159.425,804.248 162.797,800.041 162.797,794.215 C162.797,786.582 157.753,781.646 148.151,781.646 z M141.571,790.843 L148.044,790.843 C150.552,790.843 152.44,791.922 152.44,794.215 C152.44,796.507 150.552,797.559 148.044,797.559 L141.571,797.559 z" fill="#FFFFFF"/>
      <path d="M185.695,780.945 C174.016,780.945 165.736,789.225 165.736,800.526 C165.736,811.826 174.016,820.107 185.695,820.107 C197.374,820.107 205.654,811.826 205.654,800.526 C205.654,789.225 197.374,780.945 185.695,780.945 z M185.695,790.762 C191.197,790.762 195,794.781 195,800.526 C195,806.271 191.197,810.289 185.695,810.289 C180.193,810.289 176.39,806.271 176.39,800.526 C176.39,794.781 180.193,790.762 185.695,790.762 z" fill="#FFFFFF"/>
      <path d="M228.579,780.945 C216.711,780.945 208.351,789.036 208.351,800.526 C208.351,811.989 216.711,820.08 228.579,820.08 C237.452,820.08 246.811,813.769 246.811,801.173 C246.811,800.094 246.784,798.962 246.595,797.775 L227.823,797.775 L227.823,805.273 L236.67,805.273 C235.591,808.968 232.894,810.829 228.12,810.829 C223.293,810.829 218.842,807.403 218.842,800.526 C218.842,794.593 222.645,790.519 227.958,790.519 C231.195,790.519 233.434,791.598 235.16,793.297 L242.387,786.177 C239.151,782.914 234.62,780.945 228.579,780.945 z" fill="#FFFFFF"/>
      <path d="M267.687,781.646 L250.856,781.646 L250.856,819.406 L261.105,819.406 L261.105,806.001 L261.672,806.001 L270.762,819.406 L282.844,819.406 L272.568,805.542 C278.961,804.248 282.332,800.041 282.332,794.215 C282.332,786.582 277.288,781.646 267.687,781.646 z M261.105,790.843 L267.579,790.843 C270.087,790.843 271.975,791.922 271.975,794.215 C271.975,796.507 270.087,797.559 267.579,797.559 L261.105,797.559 z" fill="#FFFFFF"/>
      <path d="M324.191,819.406 L309.896,781.646 L297.813,781.646 L283.519,819.406 L294.226,819.406 L296.707,812.204 L310.813,812.204 L313.321,819.406 z M299.89,803.061 L303.773,791.896 L307.631,803.061 z" fill="#FFFFFF"/>
      <path d="M344.905,819.406 L358.659,781.646 L347.952,781.646 L338.944,808.698 L329.935,781.646 L319.066,781.646 L332.821,819.406 z" fill="#FFFFFF"/>
      <path d="M371.74,819.406 L371.74,781.646 L361.491,781.646 L361.491,819.406 z" fill="#FFFFFF"/>
      <path d="M406.695,791.086 L406.695,781.646 L374.977,781.646 L374.977,791.086 L385.712,791.086 L385.712,819.406 L395.961,819.406 L395.961,791.086 z" fill="#FFFFFF"/>
      <path d="M442.647,819.406 L428.353,781.646 L416.269,781.646 L401.974,819.406 L412.682,819.406 L415.164,812.204 L429.269,812.204 L431.778,819.406 z M418.347,803.061 L422.23,791.896 L426.087,803.061 z" fill="#FFFFFF"/>
      <path d="M469.645,791.086 L469.645,781.646 L437.927,781.646 L437.927,791.086 L448.661,791.086 L448.661,819.406 L458.91,819.406 L458.91,791.086 z" fill="#FFFFFF"/>
      <path d="M483.131,819.406 L483.131,781.646 L472.882,781.646 L472.882,819.406 z" fill="#FFFFFF"/>
      <path d="M507.135,780.945 C495.456,780.945 487.176,789.225 487.176,800.526 C487.176,811.826 495.456,820.107 507.135,820.107 C518.813,820.107 527.093,811.826 527.093,800.526 C527.093,789.225 518.813,780.945 507.135,780.945 z M507.135,790.762 C512.637,790.762 516.44,794.781 516.44,800.526 C516.44,806.271 512.637,810.289 507.135,810.289 C501.632,810.289 497.83,806.271 497.83,800.526 C497.83,794.781 501.632,790.762 507.135,790.762 z" fill="#FFFFFF"/>
      <path d="M566.929,819.406 L566.929,781.646 L556.68,781.646 L556.68,802.873 L541.118,781.646 L531.139,781.646 L531.139,819.406 L541.388,819.406 L541.388,798.18 L556.95,819.406 z" fill="#FFFFFF"/>
    </g>
  </g>
  <g id="Logo">
    <g id="M">
      <path d="M128.686,34.016 L133.728,45.072 L138.77,56.129 L208.829,209.778 L265.148,87.201 L279.576,116.056 L288.369,96.918 L292.011,88.991 L295.653,81.065 L303.456,96.67 L398.029,285.815 L399.792,289.344 L401.556,292.873 L398.137,294.84 L394.717,296.808 L353.121,320.746 L349.249,322.974 L345.377,325.202 L343.408,321.192 L341.438,317.182 L329.831,293.546 L318.125,300.283 L288.362,239.68 L230.288,376.027 L226.516,384.884 L222.743,393.74 L218.842,384.94 L214.941,376.139 L199.517,341.339 L191.766,359.537 L142.345,248.028 L123.653,337.956 L122.96,341.289 L122.267,344.621 L54.23,344.621 L55.466,339.462 L56.703,334.303 L59.402,323.043 L34.016,323.043 L100.333,46.39 L116.972,82.881 L123.02,57.65 L125.854,45.833 L128.686,34.016 z M263.971,190.014 L206.245,325.545 L222.514,362.252 L281.057,224.804 L263.971,190.014 z M113.676,183.343 L84.637,323.043 L72.308,323.043 L70.144,332.07 L112.057,332.07 L133.619,228.34 L113.676,183.343 z M296.132,110.085 L286.774,130.452 L359.721,276.346 L340.732,287.273 L350.734,307.639 L385.038,287.898 L296.132,110.085 z M132.393,72.393 L125.431,101.433 L191.766,246.914 L201.906,224.845 L132.393,72.393 z" fill="#282A36"/>
      <path d="M390.127,289.138 L295.554,99.993 L222.173,259.706 L130.739,59.182 L64.421,335.836 L115.042,335.836 L144.081,196.136 L222.173,372.33 L294.377,202.807 L348.53,313.075 z" fill="#FFFFFF"/>
    </g>
  </g>
</svg>
