<?xml version="1.0" encoding="UTF-8"?>
<!DOCTYPE svg PUBLIC "-//W3C//DTD SVG 1.1//EN" "http://www.w3.org/Graphics/SVG/1.1/DTD/svg11.dtd">
<svg version="1.1" xmlns="http://www.w3.org/2000/svg" xmlns:xlink="http://www.w3.org/1999/xlink" x="0" y="0" width="700" height="700" viewBox="0, 0, 700, 700">
  <g id="Background">
    <path d="M0,0 L700,0 L700,700 L0,700 z" fill="#282A36"/>
  </g>
  <g id="Rainbow">
    <g>
      <path d="M0,0 L100,0 L100,600 L0,600 L0,0 z" fill="#FF5555"/>
      <path d="M600,0 L700,0 L700,600 L600,600 L600,0 z" fill="#FF79C6"/>
      <path d="M100,0 L200,0 L200,600 L100,600 L100,0 z" fill="#FFB86C"/>
      <path d="M200,0 L300,0 L300,600 L200,600 L200,0 z" fill="#F1FA8C"/>
      <path d="M300,0 L400,0 L400,600 L300,600 L300,0 z" fill="#50FA7B"/>
      <path d="M400,0 L500,0 L500,600 L400,600 L400,0 z" fill="#8BE9FD"/>
      <path d="M500,0 L600,0 L600,600 L500,600 L500,0 z" fill="#BD93F9"/>
    </g>
  </g>
  <g id="Text">
    <g id="2018">
      <path d="M348,478.025 L361.289,494.238 C366.186,489.151 371.717,484.51 379.22,484.51 C384.816,484.51 389.331,488.134 389.331,493.857 C389.331,497.99 387.296,501.933 383.29,505.747 L353.023,534.298 L353.023,552.675 L415.465,552.675 L415.465,530.992 L386.151,530.992 L398.869,518.91 C409.933,508.545 413.684,501.169 413.684,490.869 C413.684,473.256 401.158,462 382.146,462 C364.596,462 354.168,470.839 348,478.025 z" fill="#282A36"/>
      <path d="M459.275,462 C438.546,462 422.84,476.816 422.84,508.164 C422.84,539.512 438.546,554.328 459.275,554.328 C479.623,554.328 495.074,539.512 495.074,508.164 C495.074,476.816 479.623,462 459.275,462 z M459.275,484.51 C465.697,484.51 470.912,491.377 470.912,508.164 C470.912,524.951 465.697,531.818 459.275,531.818 C452.408,531.818 447.004,524.951 447.004,508.164 C447.004,491.377 452.408,484.51 459.275,484.51 z" fill="#282A36"/>
      <path d="M526.868,530.419 L508.745,530.419 L508.745,552.675 L568.072,552.675 L568.072,530.419 L550.332,530.419 L550.332,462.255 L508.046,477.006 L508.046,499.771 L526.868,493.221 z" fill="#282A36"/>
      <path d="M611.564,462 C592.807,462 577.483,471.666 577.483,487.816 C577.483,497.8 583.141,504.158 590.708,507.719 C582.061,511.089 575.193,517.575 575.193,528.384 C575.193,544.727 591.535,554.328 611.564,554.328 C631.657,554.328 648,544.727 648,528.384 C648,517.511 641.132,511.28 632.421,507.719 C639.987,504.158 645.71,497.8 645.71,487.816 C645.71,471.666 630.386,462 611.564,462 z M611.564,516.43 C617.351,516.43 622.247,519.673 622.247,525.459 C622.247,531.182 617.351,534.235 611.564,534.235 C605.906,534.235 600.946,531.182 600.946,525.459 C600.946,519.673 605.906,516.43 611.564,516.43 z M611.564,482.602 C616.588,482.602 620.531,485.273 620.531,490.36 C620.531,495.447 616.588,498.308 611.564,498.308 C606.542,498.308 602.599,495.447 602.599,490.36 C602.599,485.273 606.542,482.602 611.564,482.602 z" fill="#282A36"/>
    </g>
    <g id="Mikrogravitation">
      <path d="M77.569,675.417 L77.569,629.846 L60.415,629.846 L51.301,657.254 L42.154,629.846 L25,629.846 L25,675.417 L37.369,675.417 L37.369,646.903 L44.693,671.185 L57.876,671.185 L65.2,646.903 L65.2,675.417 z" fill="#FFFFFF"/>
      <path d="M96.448,675.417 L96.448,629.846 L84.079,629.846 L84.079,675.417 z" fill="#FFFFFF"/>
      <path d="M118.843,657.97 L131.7,675.417 L146.901,675.417 L128.934,652.078 L145.437,629.846 L130.398,629.846 L118.908,646.968 L115.328,646.968 L115.328,629.846 L102.958,629.846 L102.958,675.417 L115.328,675.417 L115.328,657.97 z" fill="#FFFFFF"/>
      <path d="M169.589,629.846 L149.278,629.846 L149.278,675.417 L161.647,675.417 L161.647,659.239 L162.33,659.239 L173.3,675.417 L187.882,675.417 L175.481,658.686 C183.195,657.124 187.264,652.046 187.264,645.015 C187.264,635.803 181.177,629.846 169.589,629.846 z M161.647,640.946 L169.459,640.946 C172.486,640.946 174.765,642.248 174.765,645.015 C174.765,647.782 172.486,649.051 169.459,649.051 L161.647,649.051 z" fill="#FFFFFF"/>
      <path d="M214.899,629 C200.805,629 190.812,638.993 190.812,652.632 C190.812,666.27 200.805,676.263 214.899,676.263 C228.994,676.263 238.987,666.27 238.987,652.632 C238.987,638.993 228.994,629 214.899,629 z M214.899,640.848 C221.54,640.848 226.129,645.698 226.129,652.632 C226.129,659.565 221.54,664.415 214.899,664.415 C208.259,664.415 203.669,659.565 203.669,652.632 C203.669,645.698 208.259,640.848 214.899,640.848 z" fill="#FFFFFF"/>
      <path d="M266.655,629 C252.332,629 242.242,638.765 242.242,652.632 C242.242,666.466 252.332,676.231 266.655,676.231 C277.364,676.231 288.659,668.614 288.659,653.413 C288.659,652.111 288.626,650.744 288.398,649.312 L265.743,649.312 L265.743,658.361 L276.42,658.361 C275.118,662.82 271.863,665.066 266.101,665.066 C260.275,665.066 254.904,660.932 254.904,652.632 C254.904,645.471 259.493,640.555 265.906,640.555 C269.812,640.555 272.514,641.857 274.597,643.908 L283.32,635.315 C279.414,631.376 273.946,629 266.655,629 z" fill="#FFFFFF"/>
      <path d="M313.853,629.846 L293.541,629.846 L293.541,675.417 L305.91,675.417 L305.91,659.239 L306.594,659.239 L317.564,675.417 L332.146,675.417 L319.744,658.686 C327.459,657.124 331.528,652.046 331.528,645.015 C331.528,635.803 325.441,629.846 313.853,629.846 z M305.91,640.946 L313.723,640.946 C316.75,640.946 319.028,642.248 319.028,645.015 C319.028,647.782 316.75,649.051 313.723,649.051 L305.91,649.051 z" fill="#FFFFFF"/>
      <path d="M382.046,675.417 L364.794,629.846 L350.212,629.846 L332.96,675.417 L345.882,675.417 L348.877,666.726 L365.901,666.726 L368.928,675.417 z M352.718,655.691 L357.405,642.216 L362.06,655.691 z" fill="#FFFFFF"/>
      <path d="M407.045,675.417 L423.645,629.846 L410.723,629.846 L399.851,662.494 L388.979,629.846 L375.861,629.846 L392.462,675.417 z" fill="#FFFFFF"/>
      <path d="M439.432,675.417 L439.432,629.846 L427.063,629.846 L427.063,675.417 z" fill="#FFFFFF"/>
      <path d="M481.618,641.239 L481.618,629.846 L443.338,629.846 L443.338,641.239 L456.294,641.239 L456.294,675.417 L468.663,675.417 L468.663,641.239 z" fill="#FFFFFF"/>
      <path d="M525.008,675.417 L507.756,629.846 L493.173,629.846 L475.921,675.417 L488.844,675.417 L491.839,666.726 L508.862,666.726 L511.89,675.417 z M495.68,655.691 L500.367,642.216 L505.022,655.691 z" fill="#FFFFFF"/>
      <path d="M557.591,641.239 L557.591,629.846 L519.311,629.846 L519.311,641.239 L532.266,641.239 L532.266,675.417 L544.635,675.417 L544.635,641.239 z" fill="#FFFFFF"/>
      <path d="M573.866,675.417 L573.866,629.846 L561.497,629.846 L561.497,675.417 z" fill="#FFFFFF"/>
      <path d="M602.836,629 C588.741,629 578.748,638.993 578.748,652.632 C578.748,666.27 588.741,676.263 602.836,676.263 C616.93,676.263 626.923,666.27 626.923,652.632 C626.923,638.993 616.93,629 602.836,629 z M602.836,640.848 C609.476,640.848 614.066,645.698 614.066,652.632 C614.066,659.565 609.476,664.415 602.836,664.415 C596.195,664.415 591.606,659.565 591.606,652.632 C591.606,645.698 596.195,640.848 602.836,640.848 z" fill="#FFFFFF"/>
      <path d="M675,675.417 L675,629.846 L662.631,629.846 L662.631,655.464 L643.849,629.846 L631.806,629.846 L631.806,675.417 L644.175,675.417 L644.175,649.8 L662.956,675.417 z" fill="#FFFFFF"/>
    </g>
  </g>
  <g id="Logo">
    <g id="M">
      <path d="M145.797,40 L151.431,52.356 L157.065,64.712 L235.358,236.418 L298.295,99.435 L314.419,131.682 L324.245,110.295 L328.315,101.437 L332.385,92.578 L341.105,110.018 L446.792,321.391 L448.763,325.335 L450.734,329.278 L446.913,331.477 L443.092,333.676 L396.607,360.427 L392.28,362.917 L387.953,365.407 L385.752,360.926 L383.551,356.444 L370.58,330.031 L357.498,337.56 L324.238,269.834 L259.339,422.205 L255.123,432.103 L250.907,442 L246.548,432.165 L242.188,422.33 L224.952,383.441 L216.29,403.777 L161.06,279.164 L140.171,379.66 L139.397,383.384 L138.623,387.108 L62.59,387.108 L63.972,381.343 L65.354,375.578 L68.37,362.994 L40,362.994 L114.111,53.828 L132.706,94.608 L139.465,66.412 L142.631,53.206 L145.797,40 z M296.98,214.331 L232.47,365.79 L250.65,406.811 L316.074,253.21 L296.98,214.331 z M129.022,206.876 L96.57,362.994 L82.793,362.994 L80.374,373.082 L127.213,373.082 L151.309,257.162 L129.022,206.876 z M332.92,125.009 L322.463,147.77 L403.982,310.809 L382.762,323.02 L393.939,345.78 L432.275,323.719 L332.92,125.009 z M149.938,82.887 L142.159,115.34 L216.29,277.919 L227.621,253.256 L149.938,82.887 z" fill="#282A36"/>
      <path d="M437.962,325.104 L332.275,113.732 L250.269,292.214 L148.091,68.124 L73.978,377.29 L130.549,377.29 L163,221.172 L250.269,418.074 L330.959,228.627 L391.476,351.855 z" fill="#FFFFFF"/>
    </g>
  </g>
</svg>
