<?xml version="1.0" encoding="UTF-8"?>
<!DOCTYPE svg PUBLIC "-//W3C//DTD SVG 1.1//EN" "http://www.w3.org/Graphics/SVG/1.1/DTD/svg11.dtd">
<svg version="1.1" xmlns="http://www.w3.org/2000/svg" xmlns:xlink="http://www.w3.org/1999/xlink" x="0" y="0" width="153.071" height="153.071" viewBox="0, 0, 153.071, 153.071">
  <g id="Layer_1">
    <path d="M0,-0 L25.917,-0 L25.917,153.071 L0,153.071 L0,-0 z" fill="#FF5555"/>
    <path d="M127.154,-0 L153.063,-0 L153.063,153.071 L127.154,153.071 L127.154,-0 z" fill="#FF79C6"/>
    <path d="M25.917,-0 L46.164,-0 L46.164,153.071 L25.917,153.071 L25.917,-0 z" fill="#FFB86C"/>
    <path d="M46.164,-0 L66.412,-0 L66.412,153.071 L46.164,153.071 L46.164,-0 z" fill="#F1FA8C"/>
    <path d="M66.412,-0 L86.659,-0 L86.659,153.071 L66.412,153.071 L66.412,-0 z" fill="#50FA7B"/>
    <path d="M86.659,-0 L106.907,-0 L106.907,153.071 L86.659,153.071 L86.659,-0 z" fill="#8BE9FD"/>
    <path d="M106.907,-0 L127.154,-0 L127.154,153.071 L106.907,153.071 L106.907,-0 z" fill="#BD93F9"/>
    <path d="M49.048,21.048 L50.604,24.459 L52.159,27.87 L73.772,75.271 L91.147,37.456 L95.598,46.358 L98.31,40.453 L99.434,38.008 L100.558,35.563 L102.965,40.377 L132.14,98.728 L132.684,99.817 L133.228,100.905 L132.174,101.512 L131.119,102.119 L118.286,109.504 L117.092,110.191 L115.897,110.879 L115.29,109.642 L114.682,108.405 L111.101,101.113 L107.49,103.191 L98.308,84.495 L80.392,126.558 L79.229,129.291 L78.065,132.023 L76.861,129.308 L75.658,126.593 L70.9,115.857 L68.508,121.471 L53.262,87.071 L47.495,114.813 L47.282,115.842 L47.068,116.869 L26.079,116.869 L26.46,115.278 L26.842,113.686 L27.674,110.213 L19.843,110.213 L40.301,24.865 L45.435,36.123 L47.3,28.339 L48.174,24.694 L49.048,21.048 z M90.783,69.173 L72.975,110.984 L77.994,122.309 L96.054,79.906 L90.783,69.173 z M44.418,67.115 L35.459,110.213 L31.656,110.213 L30.988,112.998 L43.918,112.998 L50.57,80.997 L44.418,67.115 z M100.705,44.515 L97.818,50.799 L120.322,95.807 L114.464,99.178 L117.55,105.461 L128.133,99.37 L100.705,44.515 z M50.192,32.887 L48.044,41.846 L68.508,86.727 L71.637,79.919 L50.192,32.887 z" fill="#282A36"/>
    <path d="M129.702,99.753 L100.527,41.402 L77.889,90.673 L49.682,28.812 L29.222,114.159 L44.839,114.159 L53.798,71.062 L77.889,125.418 L100.164,73.12 L116.87,107.138 z" fill="#FFFFFF"/>
  </g>
</svg>
