<?xml version="1.0" encoding="UTF-8"?>
<!DOCTYPE svg PUBLIC "-//W3C//DTD SVG 1.1//EN" "http://www.w3.org/Graphics/SVG/1.1/DTD/svg11.dtd">
<svg version="1.1" xmlns="http://www.w3.org/2000/svg" xmlns:xlink="http://www.w3.org/1999/xlink" x="0" y="0" width="500.882" height="36.42" viewBox="0, 0, 538.583, 39.162">
  <g id="Ebene_1" transform="translate(-72, -396)">
    <g id="Mikrogravitation">
      <path d="M115.558,434.461 L115.558,396.701 L101.344,396.701 L93.793,419.411 L86.214,396.701 L72,396.701 L72,434.461 L82.249,434.461 L82.249,410.834 L88.317,430.954 L99.241,430.954 L105.309,410.834 L105.309,434.461 z" fill="#282A36"/>
      <path d="M131.201,434.461 L131.201,396.701 L120.952,396.701 L120.952,434.461 z" fill="#282A36"/>
      <path d="M149.757,420.004 L160.41,434.461 L173.006,434.461 L158.119,415.122 L171.793,396.701 L159.332,396.701 L149.811,410.888 L146.845,410.888 L146.845,396.701 L136.595,396.701 L136.595,434.461 L146.845,434.461 L146.845,420.004 z" fill="#282A36"/>
      <path d="M191.805,396.701 L174.975,396.701 L174.975,434.461 L185.224,434.461 L185.224,421.056 L185.79,421.056 L194.88,434.461 L206.962,434.461 L196.687,420.598 C203.079,419.303 206.45,415.096 206.45,409.27 C206.45,401.637 201.406,396.701 191.805,396.701 z M185.224,405.898 L191.697,405.898 C194.205,405.898 196.094,406.977 196.094,409.27 C196.094,411.563 194.205,412.614 191.697,412.614 L185.224,412.614 z" fill="#282A36"/>
      <path d="M229.348,396 C217.67,396 209.39,404.28 209.39,415.581 C209.39,426.882 217.67,435.162 229.348,435.162 C241.027,435.162 249.307,426.882 249.307,415.581 C249.307,404.28 241.027,396 229.348,396 z M229.348,405.817 C234.851,405.817 238.653,409.836 238.653,415.581 C238.653,421.326 234.851,425.344 229.348,425.344 C223.846,425.344 220.043,421.326 220.043,415.581 C220.043,409.836 223.846,405.817 229.348,405.817 z" fill="#282A36"/>
      <path d="M272.233,396 C260.365,396 252.004,404.091 252.004,415.581 C252.004,427.044 260.365,435.135 272.233,435.135 C281.106,435.135 290.465,428.824 290.465,416.228 C290.465,415.15 290.438,414.017 290.249,412.83 L271.477,412.83 L271.477,420.328 L280.324,420.328 C279.245,424.023 276.548,425.884 271.774,425.884 C266.946,425.884 262.496,422.458 262.496,415.581 C262.496,409.648 266.298,405.574 271.612,405.574 C274.848,405.574 277.087,406.653 278.813,408.353 L286.041,401.233 C282.805,397.969 278.274,396 272.233,396 z" fill="#282A36"/>
      <path d="M311.34,396.701 L294.51,396.701 L294.51,434.461 L304.759,434.461 L304.759,421.056 L305.326,421.056 L314.415,434.461 L326.498,434.461 L316.222,420.598 C322.614,419.303 325.986,415.096 325.986,409.27 C325.986,401.637 320.942,396.701 311.34,396.701 z M304.759,405.898 L311.233,405.898 C313.741,405.898 315.628,406.977 315.628,409.27 C315.628,411.563 313.741,412.614 311.233,412.614 L304.759,412.614 z" fill="#282A36"/>
      <path d="M367.844,434.461 L353.549,396.701 L341.467,396.701 L327.172,434.461 L337.879,434.461 L340.361,427.259 L354.467,427.259 L356.975,434.461 z M343.543,418.116 L347.427,406.951 L351.284,418.116 z" fill="#282A36"/>
      <path d="M388.558,434.461 L402.313,396.701 L391.606,396.701 L382.597,423.753 L373.589,396.701 L362.719,396.701 L376.475,434.461 z" fill="#282A36"/>
      <path d="M415.394,434.461 L415.394,396.701 L405.145,396.701 L405.145,434.461 z" fill="#282A36"/>
      <path d="M450.349,406.141 L450.349,396.701 L418.63,396.701 L418.63,406.141 L429.365,406.141 L429.365,434.461 L439.614,434.461 L439.614,406.141 z" fill="#282A36"/>
      <path d="M486.301,434.461 L472.006,396.701 L459.923,396.701 L445.628,434.461 L456.336,434.461 L458.818,427.259 L472.923,427.259 L475.432,434.461 z M462,418.116 L465.884,406.951 L469.741,418.116 z" fill="#282A36"/>
      <path d="M513.299,406.141 L513.299,396.701 L481.581,396.701 L481.581,406.141 L492.315,406.141 L492.315,434.461 L502.564,434.461 L502.564,406.141 z" fill="#282A36"/>
      <path d="M526.784,434.461 L526.784,396.701 L516.535,396.701 L516.535,434.461 z" fill="#282A36"/>
      <path d="M550.788,396 C539.109,396 530.829,404.28 530.829,415.581 C530.829,426.882 539.109,435.162 550.788,435.162 C562.466,435.162 570.747,426.882 570.747,415.581 C570.747,404.28 562.466,396 550.788,396 z M550.788,405.817 C556.29,405.817 560.093,409.836 560.093,415.581 C560.093,421.326 556.29,425.344 550.788,425.344 C545.286,425.344 541.483,421.326 541.483,415.581 C541.483,409.836 545.286,405.817 550.788,405.817 z" fill="#282A36"/>
      <path d="M610.583,434.461 L610.583,396.701 L600.334,396.701 L600.334,417.928 L584.771,396.701 L574.793,396.701 L574.793,434.461 L585.041,434.461 L585.041,413.235 L600.603,434.461 z" fill="#282A36"/>
    </g>
  </g>
</svg>
