<?xml version="1.0" encoding="UTF-8"?>
<!DOCTYPE svg PUBLIC "-//W3C//DTD SVG 1.1//EN" "http://www.w3.org/Graphics/SVG/1.1/DTD/svg11.dtd">
<svg version="1.1" xmlns="http://www.w3.org/2000/svg" xmlns:xlink="http://www.w3.org/1999/xlink" x="0" y="0" width="595.276" height="841.89" viewBox="0, 0, 595.276, 841.89">
  <g id="Background">
    <path d="M-0,-0 L595.276,-0 L595.276,841.89 L-0,841.89 z" fill="#282A36"/>
  </g>
  <g id="Rainbow">
    <path d="M-0,0 L85.039,0 L85.039,756.85 L-0,756.85 L-0,0 z" fill="#FF5555"/>
    <path d="M510.236,0 L595.276,0 L595.276,756.85 L510.236,756.85 L510.236,0 z" fill="#FF79C6"/>
    <path d="M85.039,0 L170.079,0 L170.079,756.85 L85.039,756.85 L85.039,0 z" fill="#FFB86C"/>
    <path d="M170.079,0 L255.118,0 L255.118,756.85 L170.079,756.85 L170.079,0 z" fill="#F1FA8C"/>
    <path d="M255.118,0 L340.158,0 L340.158,756.85 L255.118,756.85 L255.118,0 z" fill="#50FA7B"/>
    <path d="M340.158,0 L425.197,0 L425.197,756.85 L340.158,756.85 L340.158,0 z" fill="#8BE9FD"/>
    <path d="M425.197,0 L510.236,0 L510.236,756.85 L425.197,756.85 L425.197,0 z" fill="#BD93F9"/>
  </g>
  <g id="Text">
    <g id="Mikrogravitation">
      <path d="M71.905,819.406 L71.905,781.646 L57.691,781.646 L50.139,804.356 L42.56,781.646 L28.346,781.646 L28.346,819.406 L38.595,819.406 L38.595,795.779 L44.664,815.899 L55.587,815.899 L61.656,795.779 L61.656,819.406 z" fill="#FFFFFF"/>
      <path d="M87.547,819.406 L87.547,781.646 L77.299,781.646 L77.299,819.406 z" fill="#FFFFFF"/>
      <path d="M106.104,804.949 L116.757,819.406 L129.352,819.406 L114.465,800.067 L128.139,781.646 L115.678,781.646 L106.158,795.833 L103.191,795.833 L103.191,781.646 L92.942,781.646 L92.942,819.406 L103.191,819.406 L103.191,804.949 z" fill="#FFFFFF"/>
      <path d="M148.151,781.646 L131.322,781.646 L131.322,819.406 L141.571,819.406 L141.571,806.001 L142.137,806.001 L151.226,819.406 L163.309,819.406 L153.033,805.542 C159.425,804.248 162.797,800.041 162.797,794.215 C162.797,786.582 157.753,781.646 148.151,781.646 z M141.571,790.843 L148.044,790.843 C150.552,790.843 152.44,791.922 152.44,794.215 C152.44,796.507 150.552,797.559 148.044,797.559 L141.571,797.559 z" fill="#FFFFFF"/>
      <path d="M185.695,780.945 C174.016,780.945 165.736,789.225 165.736,800.526 C165.736,811.826 174.016,820.107 185.695,820.107 C197.374,820.107 205.654,811.826 205.654,800.526 C205.654,789.225 197.374,780.945 185.695,780.945 z M185.695,790.762 C191.197,790.762 195,794.781 195,800.526 C195,806.271 191.197,810.289 185.695,810.289 C180.193,810.289 176.39,806.271 176.39,800.526 C176.39,794.781 180.193,790.762 185.695,790.762 z" fill="#FFFFFF"/>
      <path d="M228.579,780.945 C216.711,780.945 208.351,789.036 208.351,800.526 C208.351,811.989 216.711,820.08 228.579,820.08 C237.452,820.08 246.811,813.769 246.811,801.173 C246.811,800.094 246.784,798.962 246.595,797.775 L227.823,797.775 L227.823,805.273 L236.67,805.273 C235.591,808.968 232.894,810.829 228.12,810.829 C223.293,810.829 218.842,807.403 218.842,800.526 C218.842,794.593 222.645,790.519 227.958,790.519 C231.195,790.519 233.434,791.598 235.16,793.297 L242.387,786.177 C239.151,782.914 234.62,780.945 228.579,780.945 z" fill="#FFFFFF"/>
      <path d="M267.687,781.646 L250.856,781.646 L250.856,819.406 L261.105,819.406 L261.105,806.001 L261.672,806.001 L270.762,819.406 L282.844,819.406 L272.568,805.542 C278.961,804.248 282.332,800.041 282.332,794.215 C282.332,786.582 277.288,781.646 267.687,781.646 z M261.105,790.843 L267.579,790.843 C270.087,790.843 271.975,791.922 271.975,794.215 C271.975,796.507 270.087,797.559 267.579,797.559 L261.105,797.559 z" fill="#FFFFFF"/>
      <path d="M324.191,819.406 L309.896,781.646 L297.813,781.646 L283.519,819.406 L294.226,819.406 L296.707,812.204 L310.813,812.204 L313.321,819.406 z M299.89,803.061 L303.773,791.896 L307.631,803.061 z" fill="#FFFFFF"/>
      <path d="M344.905,819.406 L358.659,781.646 L347.952,781.646 L338.944,808.698 L329.935,781.646 L319.066,781.646 L332.821,819.406 z" fill="#FFFFFF"/>
      <path d="M371.74,819.406 L371.74,781.646 L361.491,781.646 L361.491,819.406 z" fill="#FFFFFF"/>
      <path d="M406.695,791.086 L406.695,781.646 L374.977,781.646 L374.977,791.086 L385.712,791.086 L385.712,819.406 L395.961,819.406 L395.961,791.086 z" fill="#FFFFFF"/>
      <path d="M442.647,819.406 L428.353,781.646 L416.269,781.646 L401.974,819.406 L412.682,819.406 L415.164,812.204 L429.269,812.204 L431.778,819.406 z M418.347,803.061 L422.23,791.896 L426.087,803.061 z" fill="#FFFFFF"/>
      <path d="M469.645,791.086 L469.645,781.646 L437.927,781.646 L437.927,791.086 L448.661,791.086 L448.661,819.406 L458.91,819.406 L458.91,791.086 z" fill="#FFFFFF"/>
      <path d="M483.131,819.406 L483.131,781.646 L472.882,781.646 L472.882,819.406 z" fill="#FFFFFF"/>
      <path d="M507.135,780.945 C495.456,780.945 487.176,789.225 487.176,800.526 C487.176,811.826 495.456,820.107 507.135,820.107 C518.813,820.107 527.093,811.826 527.093,800.526 C527.093,789.225 518.813,780.945 507.135,780.945 z M507.135,790.762 C512.637,790.762 516.44,794.781 516.44,800.526 C516.44,806.271 512.637,810.289 507.135,810.289 C501.632,810.289 497.83,806.271 497.83,800.526 C497.83,794.781 501.632,790.762 507.135,790.762 z" fill="#FFFFFF"/>
      <path d="M566.929,819.406 L566.929,781.646 L556.68,781.646 L556.68,802.873 L541.118,781.646 L531.139,781.646 L531.139,819.406 L541.388,819.406 L541.388,798.18 L556.95,819.406 z" fill="#FFFFFF"/>
    </g>
    <g id="#WakeThemAll">
      <path d="M41.041,716.062 L34.898,716.062 L32.553,727.007 L38.696,727.007 L36.797,735.979 L30.654,735.979 L28.346,746.924 L34.451,746.924 L32.181,757.683 L44.168,757.683 L46.439,746.924 L53.252,746.924 L50.981,757.683 L62.968,757.683 L65.239,746.924 L71.419,746.924 L73.727,735.979 L67.585,735.979 L69.483,727.007 L75.626,727.007 L77.971,716.062 L71.829,716.062 L74.062,705.564 L62.075,705.564 L59.841,716.062 L53.028,716.062 L55.262,705.564 L43.275,705.564 z M48.784,735.979 L50.683,727.007 L57.496,727.007 L55.597,735.979 z" fill="#282A36"/>
      <path d="M146.174,757.683 L161.065,705.564 L146.695,705.564 L137.797,740.558 L128.416,705.564 L113.338,705.564 L103.957,740.521 L95.059,705.564 L80.503,705.564 L95.394,757.683 L112.073,757.683 L120.784,727.193 L129.496,757.683 z" fill="#282A36"/>
      <path d="M197.661,757.683 L197.661,720.79 L184.929,720.79 L184.929,724.103 C182.695,721.572 179.568,719.785 174.914,719.785 C164.974,719.785 158.087,728.534 158.087,739.181 C158.087,749.903 165.011,758.651 174.877,758.651 C179.53,758.651 182.695,756.939 184.929,754.444 L184.929,757.683 z M178.302,732.107 C182.099,732.107 184.854,735.048 184.854,739.218 C184.854,743.388 182.099,746.329 178.302,746.329 C174.505,746.329 171.75,743.388 171.75,739.218 C171.75,735.048 174.505,732.107 178.302,732.107 z" fill="#282A36"/>
      <path d="M217.392,732.294 L217.392,704.074 L204.138,704.074 L204.138,757.683 L217.392,757.683 L217.392,743.946 L219.216,743.946 L227.108,757.683 L242.968,757.683 L230.049,738.213 L242.968,720.79 L227.034,720.79 L219.588,732.294 z" fill="#282A36"/>
      <path d="M260.651,719.785 C249.296,719.785 241.478,727.863 241.478,739.553 C241.478,750.982 249.371,758.651 261.172,758.651 C268.506,758.651 274.277,756.12 277.851,752.248 L268.767,744.653 C266.719,746.626 264.188,747.632 261.805,747.632 C258.268,747.632 256.072,746.143 255.179,743.164 L279.265,743.164 C279.377,742.42 279.526,740.484 279.526,739.218 C279.526,727.714 271.782,719.785 260.651,719.785 z M260.726,730.916 C263.518,730.916 265.379,732.331 266.31,735.16 L255.216,735.16 C256.072,732.331 257.896,730.916 260.726,730.916 z" fill="#282A36"/>
      <path d="M325.615,718.594 L325.615,705.564 L281.834,705.564 L281.834,718.594 L296.651,718.594 L296.651,757.683 L310.798,757.683 L310.798,718.594 z" fill="#282A36"/>
      <path d="M342.851,723.694 L342.851,704 L329.598,704 L329.598,757.683 L342.851,757.683 L342.851,737.915 C342.851,733.857 344.899,732.182 347.468,732.182 C350.409,732.182 352.121,734.118 352.121,737.841 L352.121,757.683 L365.375,757.683 L365.375,733.671 C365.375,725.183 359.828,719.785 352.196,719.785 C348.063,719.785 344.936,721.088 342.851,723.694 z" fill="#282A36"/>
      <path d="M389.163,719.785 C377.809,719.785 369.991,727.863 369.991,739.553 C369.991,750.982 377.883,758.651 389.685,758.651 C397.019,758.651 402.789,756.12 406.363,752.248 L397.279,744.653 C395.232,746.626 392.7,747.632 390.318,747.632 C386.781,747.632 384.584,746.143 383.691,743.164 L407.778,743.164 C407.889,742.42 408.038,740.484 408.038,739.218 C408.038,727.714 400.295,719.785 389.163,719.785 z M389.238,730.916 C392.03,730.916 393.892,732.331 394.822,735.16 L383.728,735.16 C384.584,732.331 386.409,730.916 389.238,730.916 z" fill="#282A36"/>
      <path d="M457.366,719.785 C452.266,719.785 448.617,721.683 446.384,725.481 C444.038,721.87 440.204,719.785 435.438,719.785 C430.859,719.785 427.546,721.386 425.461,724.587 L425.461,720.79 L412.841,720.79 L412.841,757.683 L426.094,757.683 L426.094,737.915 C426.094,733.857 428.142,732.182 430.71,732.182 C433.651,732.182 435.364,734.118 435.364,737.841 L435.364,757.683 L448.617,757.683 L448.617,737.915 C448.617,733.857 450.665,732.182 453.234,732.182 C456.175,732.182 457.887,734.118 457.887,737.841 L457.887,757.683 L471.14,757.683 L471.14,733.671 C471.14,725.183 465.891,719.785 457.366,719.785 z" fill="#282A36"/>
      <path d="M530.52,757.683 L510.789,705.564 L494.11,705.564 L474.379,757.683 L489.159,757.683 L492.584,747.743 L512.054,747.743 L515.517,757.683 z M496.977,735.123 L502.338,719.71 L507.661,735.123 z" fill="#282A36"/>
      <path d="M547.198,757.683 L547.198,704.074 L533.945,704.074 L533.945,757.683 z" fill="#282A36"/>
      <path d="M566.929,757.683 L566.929,704.074 L553.676,704.074 L553.676,757.683 z" fill="#282A36"/>
    </g>
    <g id="2018.2:">
      <path d="M184.25,625.401 L195.551,639.189 C199.715,634.863 204.419,630.916 210.8,630.916 C215.558,630.916 219.398,633.998 219.398,638.865 C219.398,642.38 217.667,645.732 214.261,648.977 L188.521,673.256 L188.521,688.883 L241.622,688.883 L241.622,670.444 L216.694,670.444 L227.509,660.17 C236.917,651.356 240.108,645.083 240.108,636.323 C240.108,621.345 229.455,611.774 213.287,611.774 C198.363,611.774 189.495,619.29 184.25,625.401 z" fill="#282A36"/>
      <path d="M278.879,611.774 C261.251,611.774 247.894,624.373 247.894,651.031 C247.894,677.69 261.251,690.289 278.879,690.289 C296.182,690.289 309.322,677.69 309.322,651.031 C309.322,624.373 296.182,611.774 278.879,611.774 z M278.879,630.916 C284.34,630.916 288.774,636.756 288.774,651.031 C288.774,665.307 284.34,671.147 278.879,671.147 C273.039,671.147 268.442,665.307 268.442,651.031 C268.442,636.756 273.039,630.916 278.879,630.916 z" fill="#282A36"/>
      <path d="M336.359,669.957 L320.948,669.957 L320.948,688.883 L371.399,688.883 L371.399,669.957 L356.312,669.957 L356.312,611.99 L320.353,624.535 L320.353,643.894 L336.359,638.324 z" fill="#282A36"/>
      <path d="M408.385,611.774 C392.433,611.774 379.402,619.993 379.402,633.728 C379.402,642.217 384.214,647.625 390.649,650.653 C383.295,653.519 377.455,659.034 377.455,668.227 C377.455,682.124 391.352,690.289 408.385,690.289 C425.472,690.289 439.369,682.124 439.369,668.227 C439.369,658.98 433.529,653.681 426.121,650.653 C432.556,647.625 437.423,642.217 437.423,633.728 C437.423,619.993 424.391,611.774 408.385,611.774 z M408.385,658.061 C413.306,658.061 417.469,660.819 417.469,665.739 C417.469,670.606 413.306,673.202 408.385,673.202 C403.572,673.202 399.355,670.606 399.355,665.739 C399.355,660.819 403.572,658.061 408.385,658.061 z M408.385,629.294 C412.657,629.294 416.009,631.565 416.009,635.891 C416.009,640.217 412.657,642.65 408.385,642.65 C404.113,642.65 400.761,640.217 400.761,635.891 C400.761,631.565 404.113,629.294 408.385,629.294 z" fill="#282A36"/>
      <path d="M457.159,665.361 C450.4,665.361 444.614,671.093 444.614,677.744 C444.614,684.503 450.4,690.289 457.159,690.289 C463.811,690.289 469.542,684.503 469.542,677.744 C469.542,671.093 463.811,665.361 457.159,665.361 z" fill="#282A36"/>
      <path d="M476.302,625.401 L487.603,639.189 C491.767,634.863 496.471,630.916 502.852,630.916 C507.61,630.916 511.449,633.998 511.449,638.865 C511.449,642.38 509.719,645.732 506.312,648.977 L480.573,673.256 L480.573,688.883 L533.674,688.883 L533.674,670.444 L508.746,670.444 L519.56,660.17 C528.969,651.356 532.16,645.083 532.16,636.323 C532.16,621.345 521.507,611.774 505.339,611.774 C490.415,611.774 481.547,619.29 476.302,625.401 z" fill="#282A36"/>
      <path d="M554.546,633.836 C547.787,633.836 542.001,639.568 542.001,646.219 C542.001,652.978 547.787,658.764 554.546,658.764 C561.197,658.764 566.929,652.978 566.929,646.219 C566.929,639.568 561.197,633.836 554.546,633.836 z M554.546,665.361 C547.787,665.361 542.001,671.093 542.001,677.744 C542.001,684.503 547.787,690.289 554.546,690.289 C561.197,690.289 566.929,684.503 566.929,677.744 C566.929,671.093 561.197,665.361 554.546,665.361 z" fill="#282A36"/>
    </g>
  </g>
  <g id="Logo">
    <path d="M128.686,34.016 L133.728,45.072 L138.77,56.129 L208.829,209.778 L265.148,87.201 L279.576,116.056 L288.369,96.918 L292.011,88.991 L295.653,81.065 L303.456,96.67 L398.029,285.815 L399.792,289.344 L401.556,292.873 L398.137,294.84 L394.717,296.808 L353.121,320.746 L349.249,322.974 L345.377,325.202 L343.408,321.192 L341.438,317.182 L329.831,293.546 L318.125,300.283 L288.362,239.68 L230.288,376.027 L226.516,384.884 L222.743,393.74 L218.842,384.94 L214.941,376.139 L199.517,341.339 L191.766,359.537 L142.345,248.028 L123.653,337.956 L122.96,341.289 L122.267,344.621 L54.23,344.621 L55.466,339.462 L56.703,334.303 L59.402,323.043 L34.016,323.043 L100.333,46.39 L116.972,82.881 L123.02,57.65 L125.854,45.833 L128.686,34.016 z M263.971,190.014 L206.245,325.545 L222.514,362.252 L281.057,224.804 L263.971,190.014 z M113.676,183.343 L84.637,323.043 L72.308,323.043 L70.144,332.07 L112.057,332.07 L133.619,228.34 L113.676,183.343 z M296.132,110.085 L286.774,130.452 L359.721,276.346 L340.732,287.273 L350.734,307.639 L385.038,287.898 L296.132,110.085 z M132.393,72.393 L125.431,101.433 L191.766,246.914 L201.906,224.845 L132.393,72.393 z" fill="#282A36"/>
    <path d="M390.127,289.138 L295.554,99.993 L222.173,259.706 L130.739,59.182 L64.421,335.836 L115.042,335.836 L144.081,196.136 L222.173,372.33 L294.377,202.807 L348.53,313.075 z" fill="#FFFFFF"/>
  </g>
</svg>
