<?xml version="1.0" encoding="UTF-8"?>
<!DOCTYPE svg PUBLIC "-//W3C//DTD SVG 1.1//EN" "http://www.w3.org/Graphics/SVG/1.1/DTD/svg11.dtd">
<svg version="1.1" xmlns="http://www.w3.org/2000/svg" xmlns:xlink="http://www.w3.org/1999/xlink" x="0" y="0" width="700" height="700" viewBox="0, 0, 700, 700">
  <g id="Background">
    <path d="M0,0 L700,0 L700,700 L0,700 z" fill="#282A36"/>
  </g>
  <g id="Rainbow">
    <path d="M0,0 L100,0 L100,600 L0,600 L0,0 z" fill="#FF5555"/>
    <path d="M600,0 L700,0 L700,600 L600,600 L600,0 z" fill="#FF79C6"/>
    <path d="M100,0 L200,0 L200,600 L100,600 L100,0 z" fill="#FFB86C"/>
    <path d="M200,0 L300,0 L300,600 L200,600 L200,0 z" fill="#F1FA8C"/>
    <path d="M300,0 L400,0 L400,600 L300,600 L300,0 z" fill="#50FA7B"/>
    <path d="M400,0 L500,0 L500,600 L400,600 L400,0 z" fill="#8BE9FD"/>
    <path d="M500,0 L600,0 L600,600 L500,600 L500,0 z" fill="#BD93F9"/>
  </g>
  <g id="Text">
    <g id="Mikrogravitation">
      <path d="M77.569,675.417 L77.569,629.846 L60.415,629.846 L51.301,657.254 L42.154,629.846 L25,629.846 L25,675.417 L37.369,675.417 L37.369,646.903 L44.693,671.185 L57.876,671.185 L65.2,646.903 L65.2,675.417 z" fill="#FFFFFF"/>
      <path d="M96.448,675.417 L96.448,629.846 L84.079,629.846 L84.079,675.417 z" fill="#FFFFFF"/>
      <path d="M118.843,657.97 L131.7,675.417 L146.901,675.417 L128.934,652.078 L145.437,629.846 L130.398,629.846 L118.908,646.968 L115.328,646.968 L115.328,629.846 L102.958,629.846 L102.958,675.417 L115.328,675.417 L115.328,657.97 z" fill="#FFFFFF"/>
      <path d="M169.589,629.846 L149.278,629.846 L149.278,675.417 L161.647,675.417 L161.647,659.239 L162.33,659.239 L173.3,675.417 L187.882,675.417 L175.481,658.686 C183.195,657.124 187.264,652.046 187.264,645.015 C187.264,635.803 181.177,629.846 169.589,629.846 z M161.647,640.946 L169.459,640.946 C172.486,640.946 174.765,642.248 174.765,645.015 C174.765,647.782 172.486,649.051 169.459,649.051 L161.647,649.051 z" fill="#FFFFFF"/>
      <path d="M214.899,629 C200.805,629 190.812,638.993 190.812,652.632 C190.812,666.27 200.805,676.263 214.899,676.263 C228.994,676.263 238.987,666.27 238.987,652.632 C238.987,638.993 228.994,629 214.899,629 z M214.899,640.848 C221.54,640.848 226.129,645.698 226.129,652.632 C226.129,659.565 221.54,664.415 214.899,664.415 C208.259,664.415 203.669,659.565 203.669,652.632 C203.669,645.698 208.259,640.848 214.899,640.848 z" fill="#FFFFFF"/>
      <path d="M266.655,629 C252.332,629 242.242,638.765 242.242,652.632 C242.242,666.466 252.332,676.231 266.655,676.231 C277.364,676.231 288.659,668.614 288.659,653.413 C288.659,652.111 288.626,650.744 288.398,649.312 L265.743,649.312 L265.743,658.361 L276.42,658.361 C275.118,662.82 271.863,665.066 266.101,665.066 C260.275,665.066 254.904,660.932 254.904,652.632 C254.904,645.471 259.493,640.555 265.906,640.555 C269.812,640.555 272.514,641.857 274.597,643.908 L283.32,635.315 C279.414,631.376 273.946,629 266.655,629 z" fill="#FFFFFF"/>
      <path d="M313.853,629.846 L293.541,629.846 L293.541,675.417 L305.91,675.417 L305.91,659.239 L306.594,659.239 L317.564,675.417 L332.146,675.417 L319.744,658.686 C327.459,657.124 331.528,652.046 331.528,645.015 C331.528,635.803 325.441,629.846 313.853,629.846 z M305.91,640.946 L313.723,640.946 C316.75,640.946 319.028,642.248 319.028,645.015 C319.028,647.782 316.75,649.051 313.723,649.051 L305.91,649.051 z" fill="#FFFFFF"/>
      <path d="M382.046,675.417 L364.794,629.846 L350.212,629.846 L332.96,675.417 L345.882,675.417 L348.877,666.726 L365.901,666.726 L368.928,675.417 z M352.718,655.691 L357.405,642.216 L362.06,655.691 z" fill="#FFFFFF"/>
      <path d="M407.045,675.417 L423.645,629.846 L410.723,629.846 L399.851,662.494 L388.979,629.846 L375.861,629.846 L392.462,675.417 z" fill="#FFFFFF"/>
      <path d="M439.432,675.417 L439.432,629.846 L427.063,629.846 L427.063,675.417 z" fill="#FFFFFF"/>
      <path d="M481.618,641.239 L481.618,629.846 L443.338,629.846 L443.338,641.239 L456.294,641.239 L456.294,675.417 L468.663,675.417 L468.663,641.239 z" fill="#FFFFFF"/>
      <path d="M525.008,675.417 L507.756,629.846 L493.173,629.846 L475.921,675.417 L488.844,675.417 L491.839,666.726 L508.862,666.726 L511.89,675.417 z M495.68,655.691 L500.367,642.216 L505.022,655.691 z" fill="#FFFFFF"/>
      <path d="M557.591,641.239 L557.591,629.846 L519.311,629.846 L519.311,641.239 L532.266,641.239 L532.266,675.417 L544.635,675.417 L544.635,641.239 z" fill="#FFFFFF"/>
      <path d="M573.866,675.417 L573.866,629.846 L561.497,629.846 L561.497,675.417 z" fill="#FFFFFF"/>
      <path d="M602.836,629 C588.741,629 578.748,638.993 578.748,652.632 C578.748,666.27 588.741,676.263 602.836,676.263 C616.93,676.263 626.923,666.27 626.923,652.632 C626.923,638.993 616.93,629 602.836,629 z M602.836,640.848 C609.476,640.848 614.066,645.698 614.066,652.632 C614.066,659.565 609.476,664.415 602.836,664.415 C596.195,664.415 591.606,659.565 591.606,652.632 C591.606,645.698 596.195,640.848 602.836,640.848 z" fill="#FFFFFF"/>
      <path d="M675,675.417 L675,629.846 L662.631,629.846 L662.631,655.464 L643.849,629.846 L631.806,629.846 L631.806,675.417 L644.175,675.417 L644.175,649.8 L662.956,675.417 z" fill="#FFFFFF"/>
    </g>
    <g id="#WakeThemAll">
      <path d="M40.321,550.557 L32.908,550.557 L30.077,563.767 L37.491,563.767 L35.199,574.595 L27.786,574.595 L25,587.804 L32.368,587.804 L29.628,600.789 L44.095,600.789 L46.836,587.804 L55.058,587.804 L52.317,600.789 L66.785,600.789 L69.525,587.804 L76.984,587.804 L79.769,574.595 L72.356,574.595 L74.647,563.767 L82.061,563.767 L84.891,550.557 L77.478,550.557 L80.174,537.887 L65.706,537.887 L63.011,550.557 L54.788,550.557 L57.484,537.887 L43.017,537.887 z M49.666,574.595 L51.958,563.767 L60.18,563.767 L57.889,574.595 z" fill="#282A36"/>
      <path d="M167.203,600.789 L185.175,537.887 L167.832,537.887 L157.094,580.121 L145.771,537.887 L127.575,537.887 L116.253,580.076 L105.514,537.887 L87.947,537.887 L105.919,600.789 L126.047,600.789 L136.561,563.991 L147.074,600.789 z" fill="#282A36"/>
      <path d="M229.341,600.789 L229.341,556.263 L213.975,556.263 L213.975,560.262 C211.279,557.207 207.505,555.05 201.889,555.05 C189.893,555.05 181.581,565.609 181.581,578.459 C181.581,591.398 189.937,601.957 201.844,601.957 C207.46,601.957 211.279,599.89 213.975,596.88 L213.975,600.789 z M205.977,569.922 C210.56,569.922 213.885,573.471 213.885,578.504 C213.885,583.536 210.56,587.085 205.977,587.085 C201.395,587.085 198.07,583.536 198.07,578.504 C198.07,573.471 201.395,569.922 205.977,569.922 z" fill="#282A36"/>
      <path d="M253.154,570.147 L253.154,536.09 L237.159,536.09 L237.159,600.789 L253.154,600.789 L253.154,584.21 L255.355,584.21 L264.88,600.789 L284.021,600.789 L268.43,577.291 L284.021,556.263 L264.791,556.263 L255.805,570.147 z" fill="#282A36"/>
      <path d="M305.362,555.05 C291.659,555.05 282.223,564.8 282.223,578.908 C282.223,592.701 291.748,601.957 305.991,601.957 C314.842,601.957 321.806,598.902 326.12,594.229 L315.157,585.063 C312.686,587.445 309.63,588.658 306.755,588.658 C302.487,588.658 299.836,586.861 298.757,583.266 L327.827,583.266 C327.962,582.368 328.142,580.031 328.142,578.504 C328.142,564.62 318.796,555.05 305.362,555.05 z M305.452,568.484 C308.822,568.484 311.068,570.192 312.191,573.606 L298.802,573.606 C299.836,570.192 302.037,568.484 305.452,568.484 z" fill="#282A36"/>
      <path d="M383.765,553.613 L383.765,537.887 L330.927,537.887 L330.927,553.613 L348.809,553.613 L348.809,600.789 L365.883,600.789 L365.883,553.613 z" fill="#282A36"/>
      <path d="M404.567,559.768 L404.567,536 L388.572,536 L388.572,600.789 L404.567,600.789 L404.567,576.931 C404.567,572.034 407.038,570.012 410.139,570.012 C413.688,570.012 415.755,572.348 415.755,576.841 L415.755,600.789 L431.75,600.789 L431.75,571.809 C431.75,561.565 425.055,555.05 415.845,555.05 C410.857,555.05 407.083,556.623 404.567,559.768 z" fill="#282A36"/>
      <path d="M460.46,555.05 C446.756,555.05 437.321,564.8 437.321,578.908 C437.321,592.701 446.846,601.957 461.089,601.957 C469.94,601.957 476.904,598.902 481.218,594.229 L470.255,585.063 C467.784,587.445 464.728,588.658 461.853,588.658 C457.584,588.658 454.934,586.861 453.855,583.266 L482.925,583.266 C483.06,582.368 483.239,580.031 483.239,578.504 C483.239,564.62 473.894,555.05 460.46,555.05 z M460.55,568.484 C463.92,568.484 466.166,570.192 467.289,573.606 L453.9,573.606 C454.934,570.192 457.135,568.484 460.55,568.484 z" fill="#282A36"/>
      <path d="M542.771,555.05 C536.616,555.05 532.213,557.342 529.517,561.924 C526.687,557.566 522.059,555.05 516.308,555.05 C510.781,555.05 506.783,556.982 504.267,560.846 L504.267,556.263 L489.035,556.263 L489.035,600.789 L505.03,600.789 L505.03,576.931 C505.03,572.034 507.502,570.012 510.602,570.012 C514.151,570.012 516.218,572.348 516.218,576.841 L516.218,600.789 L532.213,600.789 L532.213,576.931 C532.213,572.034 534.684,570.012 537.784,570.012 C541.334,570.012 543.401,572.348 543.401,576.841 L543.401,600.789 L559.396,600.789 L559.396,571.809 C559.396,561.565 553.06,555.05 542.771,555.05 z" fill="#282A36"/>
      <path d="M631.059,600.789 L607.246,537.887 L587.117,537.887 L563.304,600.789 L581.142,600.789 L585.275,588.793 L608.773,588.793 L612.952,600.789 z M590.577,573.561 L597.047,554.96 L603.472,573.561 z" fill="#282A36"/>
      <path d="M651.187,600.789 L651.187,536.09 L635.192,536.09 L635.192,600.789 z" fill="#282A36"/>
      <path d="M675,600.789 L675,536.09 L659.005,536.09 L659.005,600.789 z" fill="#282A36"/>
    </g>
    <g id="2018.2:">
      <path d="M224.998,443.473 L238.288,459.688 C243.184,454.601 248.716,449.959 256.219,449.959 C261.815,449.959 266.33,453.583 266.33,459.306 C266.33,463.439 264.295,467.382 260.289,471.197 L230.022,499.747 L230.022,518.124 L292.464,518.124 L292.464,496.441 L263.15,496.441 L275.868,484.359 C286.932,473.995 290.683,466.618 290.683,456.317 C290.683,438.704 278.157,427.449 259.144,427.449 C241.594,427.449 231.166,436.288 224.998,443.473 z" fill="#282A36"/>
      <path d="M336.275,427.449 C315.546,427.449 299.84,442.265 299.84,473.613 C299.84,504.961 315.546,519.777 336.275,519.777 C356.623,519.777 372.074,504.961 372.074,473.613 C372.074,442.265 356.623,427.449 336.275,427.449 z M336.275,449.959 C342.697,449.959 347.911,456.826 347.911,473.613 C347.911,490.4 342.697,497.267 336.275,497.267 C329.408,497.267 324.003,490.4 324.003,473.613 C324.003,456.826 329.408,449.959 336.275,449.959 z" fill="#282A36"/>
      <path d="M403.868,495.868 L385.746,495.868 L385.746,518.124 L445.072,518.124 L445.072,495.868 L427.331,495.868 L427.331,427.703 L385.046,442.456 L385.046,465.22 L403.868,458.67 z" fill="#282A36"/>
      <path d="M488.565,427.449 C469.807,427.449 454.483,437.114 454.483,453.265 C454.483,463.248 460.142,469.607 467.709,473.168 C459.061,476.538 452.194,483.024 452.194,493.834 C452.194,510.175 468.536,519.777 488.565,519.777 C508.659,519.777 525.001,510.175 525.001,493.834 C525.001,482.96 518.133,476.729 509.422,473.168 C516.989,469.607 522.711,463.248 522.711,453.265 C522.711,437.114 507.387,427.449 488.565,427.449 z M488.565,481.879 C494.352,481.879 499.248,485.122 499.248,490.909 C499.248,496.631 494.352,499.684 488.565,499.684 C482.906,499.684 477.946,496.631 477.946,490.909 C477.946,485.122 482.906,481.879 488.565,481.879 z M488.565,448.051 C493.589,448.051 497.531,450.722 497.531,455.809 C497.531,460.896 493.589,463.757 488.565,463.757 C483.542,463.757 479.6,460.896 479.6,455.809 C479.6,450.722 483.542,448.051 488.565,448.051 z" fill="#282A36"/>
      <path d="M545.921,490.464 C537.972,490.464 531.169,497.204 531.169,505.025 C531.169,512.973 537.972,519.777 545.921,519.777 C553.742,519.777 560.482,512.973 560.482,505.025 C560.482,497.204 553.742,490.464 545.921,490.464 z" fill="#282A36"/>
      <path d="M568.43,443.473 L581.72,459.688 C586.616,454.601 592.148,449.959 599.651,449.959 C605.247,449.959 609.762,453.583 609.762,459.306 C609.762,463.439 607.727,467.382 603.721,471.197 L573.454,499.747 L573.454,518.124 L635.896,518.124 L635.896,496.441 L606.582,496.441 L619.3,484.359 C630.364,473.995 634.115,466.618 634.115,456.317 C634.115,438.704 621.589,427.449 602.576,427.449 C585.026,427.449 574.598,436.288 568.43,443.473 z" fill="#282A36"/>
      <path d="M660.44,453.392 C652.492,453.392 645.688,460.133 645.688,467.954 C645.688,475.902 652.492,482.706 660.44,482.706 C668.262,482.706 675.002,475.902 675.002,467.954 C675.002,460.133 668.262,453.392 660.44,453.392 z M660.44,490.464 C652.492,490.464 645.688,497.204 645.688,505.025 C645.688,512.973 652.492,519.777 660.44,519.777 C668.262,519.777 675.002,512.973 675.002,505.025 C675.002,497.204 668.262,490.464 660.44,490.464 z" fill="#282A36"/>
    </g>
  </g>
  <g id="Logo">
    <g id="Emblem">
      <path d="M136.905,40 L142.065,51.318 L147.226,62.635 L218.939,219.909 L276.586,94.44 L291.355,123.976 L300.355,104.387 L304.083,96.273 L307.811,88.159 L315.798,104.133 L412.602,297.741 L414.407,301.353 L416.213,304.965 L412.713,306.979 L409.213,308.993 L366.635,333.496 L362.672,335.777 L358.708,338.057 L356.692,333.953 L354.676,329.848 L342.795,305.655 L330.813,312.551 L300.348,250.517 L240.904,390.081 L237.042,399.148 L233.181,408.213 L229.188,399.204 L225.195,390.196 L209.407,354.576 L201.473,373.202 L150.885,259.063 L131.752,351.112 L131.043,354.523 L130.334,357.934 L60.691,357.934 L61.957,352.654 L63.223,347.373 L65.986,335.847 L40,335.847 L107.882,52.666 L124.914,90.018 L131.105,64.192 L134.005,52.096 L136.905,40 z M275.381,199.679 L216.293,338.408 L232.945,375.981 L292.871,235.29 L275.381,199.679 z M121.54,192.85 L91.815,335.847 L79.196,335.847 L76.981,345.087 L119.883,345.087 L141.954,238.91 L121.54,192.85 z M308.301,117.864 L298.723,138.712 L373.39,288.048 L353.954,299.233 L364.191,320.08 L399.305,299.873 L308.301,117.864 z M140.698,79.282 L133.573,109.008 L201.473,257.922 L211.852,235.332 L140.698,79.282 z" fill="#282A36"/>
      <path d="M404.514,301.142 L307.71,107.535 L232.596,271.016 L139.006,65.76 L71.122,348.941 L122.939,348.941 L152.662,205.945 L232.596,386.298 L306.505,212.773 L361.935,325.644 z" fill="#FFFFFF"/>
    </g>
  </g>
</svg>
